<svg xmlns="http://www.w3.org/2000/svg" viewBox="0 0 32 32" fill="none">
  <path
    fill="#25D366"
    d="M16.005 3.2c-7.116 0-12.9 5.684-12.9 12.695 0 2.228.572 4.404 1.655 6.332L2 30.147l8.088-2.506a12.93 12.93 0 0 0 5.917 1.45c7.116 0 12.9-5.685 12.9-12.696 0-3.392-1.322-6.584-3.722-8.98A12.84 12.84 0 0 0 16.005 3.2Z"
  />
  <path
    fill="#fff"
    d="M24.103 20.063c-.35-.176-2.07-1.02-2.39-1.134-.323-.12-.56-.177-.8.176-.24.352-.917 1.134-1.123 1.363-.206.235-.41.265-.76.088-.35-.177-1.477-.52-2.813-1.63-1.04-.908-1.74-2.026-1.947-2.379-.205-.353-.022-.544.153-.72.158-.156.35-.41.526-.617.176-.205.235-.352.353-.586.117-.234.059-.44-.029-.617-.088-.177-.8-1.92-1.098-2.63-.288-.693-.582-.6-.8-.611-.205-.01-.44-.013-.676-.013-.233 0-.612.088-.932.44-.323.352-1.225 1.196-1.225 2.918 0 1.722 1.255 3.387 1.43 3.621.176.235 2.472 3.93 6 5.327.84.353 1.495.563 2.005.72.84.267 1.602.229 2.206.139.672-.1 2.07-.847 2.364-1.666.293-.82.293-1.522.205-1.666-.088-.147-.322-.234-.673-.41Z"
  />
</svg>
